<svg xmlns="http://www.w3.org/2000/svg" height="512" viewBox="0 0 64 64" width="512"  xmlns:v="https://vecta.io/nano"><path d="M57.937 15.865L56 24 28 46l4 4-7 1-2.857-2.857-2.92 2.634C22.953 54.725 27.234 58.184 32 61c14.03-8.29 23.978-22.044 27.461-37.964L61 16a35.48 35.48 0 0 1-3.063-.135zM18 36L39.451 8.698 32 3l-7.468 5.711A35.45 35.45 0 0 1 3 16l1.539 7.036c1.679 7.674 4.873 14.836 9.29 21.135L16 42l-3-3 1-7z" fill="#63c1ff"/><path d="M49 15L23 41l5 5 28-22 5-21z" fill="#dfdfdf"/><path d="M40 8L18 36l5 5L61 3z" fill="#f5f5f5"/><path d="m14 32-1 7 12 12 7-1z" fill="#8c421c"/><path d="M13.829 44.171l-9.415 9.415a2 2 0 0 0 0 2.828l3.172 3.172a2 2 0 0 0 2.828 0L18 52l-6-6 6 6 4-4-6-6z" fill="#bebebe"/><path d="M32 12l-5.571 4.046c-4.381 3.35-9.742 5.165-15.256 5.165l1.091 4.986c.435 1.988 1.014 3.928 1.726 5.808L18 36l16.972-21.6zm18.477 16.34C47.189 39.565 42.135 47.011 32 53c-1.285-.759-2.517-1.578-3.7-2.451l4.2-.371L28.3 46z" fill="#4398d1"/><path d="M49 15l-2.643 2.643v13.94l2.322-1.806zm-5.143 5.172l.098 13.361-1.705 1.373V21.739z" fill="#f5f5f5"/><path d="M31.443 52.651l1.457-.208 2.142-1.402L32 48l15.87-12.469c.988-2.217 1.848-4.599 2.607-7.191L28.3 46l4.2 4.179-4.2.371 3.143 2.101z" fill="#3c89bd"/><path d="M57.937 15.865L56 24l-5.523 4.34c-.759 2.592-1.619 4.974-2.607 7.191l10.467-8.224 1.124-4.27L61 16a35.48 35.48 0 0 1-3.063-.135zM25 51l-2.857-2.857-2.92 2.634 3.023 2.977z" fill="#5cb3ed"/><path d="M2.221 15.373a1 1 0 0 0-.198.841l1.539 7.037c1.633 7.463 4.662 14.45 8.981 20.792l-8.836 8.836c-1.17 1.169-1.17 3.073 0 4.242l3.172 3.172A2.99 2.99 0 0 0 9 61.17a2.99 2.99 0 0 0 2.121-.877l8.094-8.094c3.682 3.766 7.803 7.019 12.276 9.662.157.093.333.139.509.139s.352-.046.509-.139a59.85 59.85 0 0 0 27.929-38.61l1.539-7.037A1 1 0 0 0 61 15a32.95 32.95 0 0 1-1.816-.056l2.789-11.713c.081-.337-.02-.693-.266-.938a1 1 0 0 0-.938-.266l-21 5c-.187.044-.348.15-.48.287l-6.681-5.109a1 1 0 0 0-1.215 0l-7.468 5.71C17.951 12.484 10.52 15 3 15a1 1 0 0 0-.779.373zm12.632 16.066c-.661-1.777-1.208-3.609-1.612-5.457l-.832-3.801c5.275-.254 10.426-2.127 14.608-5.326l4.951-3.596 1.608 1.299L17.91 34.496zm-.146 2.682l15.172 15.172-4.525.646-11.292-11.292zM59.209 6.205l-4.101 17.224L28.08 44.666 24.414 41zM32.707 49.293l-3.203-3.203 19.015-14.94c-3.326 9.522-8.276 15.688-16.518 20.684-.354-.216-.702-.446-1.051-.674l1.192-.17c.375-.053.688-.314.807-.673s.026-.756-.242-1.024zM18 50.586L13.414 46 16 43.414 20.586 48zm-8.293 8.293c-.378.377-1.036.377-1.414 0l-3.172-3.172c-.188-.189-.292-.44-.292-.707s.104-.518.292-.707L12 47.414 16.586 52zm50.056-41.901l-1.279 5.845C55.115 38.224 45.477 51.681 32 59.835c-4.133-2.501-7.948-5.545-11.371-9.05L22 49.414l2.293 2.293A1 1 0 0 0 25 52a.98.98 0 0 0 .142-.01l2.884-.412c1.123.813 2.283 1.585 3.465 2.283.157.093.333.139.509.139s.352-.046.509-.139c9.82-5.803 15.291-13.045 18.83-24.927l5.279-4.148c.178-.139.303-.335.355-.555l1.742-7.318 1.048.065zM57.795 4.791L48.586 14H38v2h8.586l-2 2H36v2h6.586L23 39.586l-3.666-3.666L40.571 8.892zM25.14 9.505L32 4.259l6.039 4.618-3.228 4.108-2.183-1.763c-.354-.286-.852-.297-1.216-.031l-5.591 4.061a24.25 24.25 0 0 1-14.649 4.959 1 1 0 0 0-.977 1.214l1.091 4.985c.424 1.936.992 3.857 1.685 5.718l-.961 6.73a1 1 0 0 0 .283.849L14.586 42l-.601.601c-4.061-6.047-6.919-12.689-8.469-19.778l-1.278-5.844c7.531-.261 14.909-2.892 20.902-7.474zM58 39h2v2h-2z"/><path d="M56 41h2v2h-2zm4 0h2v2h-2z"/><path d="M58 43h2v2h-2zm-4 10h2v2h-2z"/><path d="M52 55h2v2h-2zm4 0h2v2h-2z"/><path d="M54 57h2v2h-2zM8 2h2v2H8z"/><path d="M6 4h2v2H6zm4 0h2v2h-2z"/><path d="M8 6h2v2H8zm36 49h2v2h-2zM16 3h2v2h-2zM2 11h2v2H2zm58 49h2v2h-2z"/></svg>